<?xml version="1.0" standalone="no"?><!DOCTYPE svg PUBLIC "-//W3C//DTD SVG 1.1//EN" "http://www.w3.org/Graphics/SVG/1.1/DTD/svg11.dtd"><svg t="1740981775786" class="icon" viewBox="0 0 1024 1024" version="1.1" xmlns="http://www.w3.org/2000/svg" p-id="8622" xmlns:xlink="http://www.w3.org/1999/xlink" width="200" height="200"><path d="M384 171.291h432.093l98.032 85.333 24.542 86.353L914.125 448 768 512H460.853l-28.76 22.977L448 597.333h362.667l128 116.028v117.664l-85.334 95.669-549.24 11.973-111.881-31.208L128 748.311l45.631-34.95h62.013l33.47 78.416 155.157 39.248 341.942-20.358 44.454-18.89v-43.466l-44.454-22.978h-296.88l-128-64-37.24-126.356 68.704-124.435L490.667 384h298.666l26.76-42.667-26.76-42.042-421.24-0.624z" fill="#94CB83" p-id="8623"></path><path d="M410.228 166.484c-24.773-48.187-74.984-81.151-132.895-81.151C194.859 85.333 128 152.192 128 234.667S194.859 384 277.333 384c56.596 0 105.838-31.484 131.168-77.892" fill="#94CB83" p-id="8624" class=""></path><path d="M277.333 405.333c-94.106 0-170.667-76.561-170.667-170.667S183.228 64 277.333 64c64.27 0 122.462 35.532 151.867 92.73 5.387 10.479 1.26 23.34-9.219 28.727-10.478 5.386-23.339 1.259-28.727-9.219-22.062-42.913-65.714-69.571-113.922-69.571-70.58 0-128 57.42-128 128s57.42 128 128 128c46.875 0 89.96-25.588 112.442-66.779 5.645-10.341 18.603-14.151 28.946-8.505 10.342 5.645 14.149 18.604 8.505 28.946-29.963 54.9-87.398 89.004-149.892 89.004zM256.358 794.111c-11.08 0-20.441-8.564-21.255-19.791l-0.394-5.423v-0.772c0-23.526-19.14-42.667-42.667-42.667s-42.667 19.141-42.667 42.667c0 11.782-9.551 21.333-21.333 21.333s-21.333-9.551-21.333-21.333c0-47.053 38.281-85.333 85.333-85.333 46.777 0 84.884 37.832 85.33 84.506l0.285 3.937c0.853 11.751-7.983 21.968-19.734 22.82-0.525 0.038-1.047 0.056-1.565 0.056z" fill="#333333" p-id="8625"></path><path d="M768 533.333H460.853c-11.782 0-21.333-9.551-21.333-21.333s9.551-21.333 21.333-21.333H768c82.343 0 149.334-66.99 149.334-149.333S850.343 192 768 192H411.966c-11.782 0-21.333-9.551-21.333-21.333s9.551-21.333 21.333-21.333H768c105.869 0 192 86.131 192 192s-86.131 191.999-192 191.999z" fill="#333333" p-id="8626"></path><path d="M768 405.333H469.333C457.551 405.333 448 395.782 448 384s9.551-21.333 21.333-21.333H768c11.764 0 21.334-9.57 21.334-21.333S779.764 320 768 320H411.966c-11.782 0-21.333-9.551-21.333-21.333s9.551-21.333 21.333-21.333H768c35.29 0 64 28.71 64 64 0 35.289-28.71 63.999-64 63.999zM765.604 618.666H466.938c-35.29 0-64-28.71-64-63.999 0-35.29 28.71-64 64-64h299.275c11.782 0 21.333 9.551 21.333 21.333s-9.551 21.333-21.333 21.333H466.938c-11.763 0-21.333 9.57-21.333 21.334 0 11.763 9.57 21.333 21.333 21.333h298.667c11.782 0 21.333 9.551 21.333 21.333s-9.551 21.333-21.334 21.333z" fill="#333333" p-id="8627"></path><path d="M469.333 746.666c-105.869 0-192-86.13-192-191.999s86.131-192 192-192c11.782 0 21.333 9.551 21.333 21.333s-9.551 21.333-21.333 21.333C386.991 405.333 320 472.324 320 554.667S386.991 704 469.333 704c11.782 0 21.333 9.551 21.333 21.333s-9.55 21.333-21.333 21.333zM768 960v-42.666c82.343 0 149.334-66.991 149.334-149.334S850.343 618.666 768 618.666V576c105.869 0 192 86.131 192 192s-86.131 192-192 192z" fill="#333333" p-id="8628"></path><path d="M768 960H298.667c-105.869 0-192-86.131-192-192h42.667c0 82.343 66.99 149.334 149.333 149.334H768c82.343 0 149.334-66.991 149.334-149.334S850.343 618.666 768 618.666V576c105.869 0 192 86.131 192 192s-86.131 192-192 192z" fill="#333333" p-id="8629"></path><path d="M768.688 832H306.923c-30.279 0-66.28-22.446-71.609-55.862-1.856-11.635 6.072-22.571 17.707-24.428 11.635-1.852 22.571 6.072 24.427 17.707 1.514 9.493 16.941 19.917 29.476 19.917H768.69c11.384 0 20.646-9.57 20.646-21.334s-9.262-21.334-20.646-21.334H471.327c-11.782 0-21.333-9.551-21.333-21.333S459.544 704 471.327 704h297.362c34.91 0 63.312 28.71 63.312 64s-28.402 64-63.313 64z" fill="#333333" p-id="8630"></path><path d="M232.233579 213.682035a21.333 21.333 0 1 0 6.835457-42.114892 21.333 21.333 0 1 0-6.835457 42.114892Z" fill="#333333" p-id="8631"></path><path d="M235.645 218.224c-14.116 0-25.6-11.484-25.6-25.6 0-14.116 11.484-25.6 25.6-25.6 14.116 0 25.6 11.484 25.6 25.6-0.001 14.116-11.485 25.6-25.6 25.6z m0-42.666c-9.411 0-17.067 7.656-17.067 17.067s7.656 17.066 17.067 17.066 17.066-7.656 17.066-17.066-7.656-17.067-17.066-17.067z" fill="#333333" p-id="8632"></path><path d="M235.644 277.958m-21.333 0a21.333 21.333 0 1 0 42.666 0 21.333 21.333 0 1 0-42.666 0Z" fill="#333333" p-id="8633"></path><path d="M235.645 303.558c-14.116 0-25.6-11.484-25.6-25.6 0-14.116 11.484-25.6 25.6-25.6 14.116 0 25.6 11.484 25.6 25.6-0.001 14.116-11.485 25.6-25.6 25.6z m0-42.667c-9.411 0-17.067 7.656-17.067 17.066s7.656 17.067 17.067 17.067 17.066-7.656 17.066-17.067-7.656-17.066-17.066-17.066z" fill="#333333" p-id="8634"></path><path d="M108.66 259.762c-35.29 0-64-28.71-64-64 0-11.782 9.551-21.333 21.333-21.333s21.333 9.551 21.333 21.333c0 11.763 9.57 21.333 21.333 21.333 11.782 0 21.333 9.551 21.333 21.333s-9.55 21.334-21.332 21.334z" fill="#333333" p-id="8635"></path><path d="M65.993 302.429c-11.782 0-21.333-9.551-21.333-21.333 0-35.29 28.71-64 64-64 11.782 0 21.333 9.551 21.333 21.333s-9.551 21.333-21.333 21.333c-11.763 0-21.333 9.57-21.333 21.333 0 11.782-9.552 21.334-21.334 21.334z" fill="#333333" p-id="8636"></path><path d="M512 170.667h42.667v128H512zM640 170.667h42.667v128H640zM768 170.667h42.667v128H768zM682.667 384h42.667v128h-42.667zM554.667 384h42.667v128h-42.667zM426.667 384h42.667v128h-42.667zM512 597.333h42.667v128H512zM372.796 699.497l41.677-121.024 40.342 13.892-41.677 121.024zM202.12 912.833l41.677-121.024 40.342 13.892-41.677 121.024zM304.093 534.977h128v42.667h-128zM816.093 321.644h128v42.667h-128zM816.093 748.311h128v42.667h-128zM640 597.333h42.667v128H640zM768 597.333h42.667v128H768zM725.333 810.667H768v128h-42.667zM597.333 810.667H640v128h-42.667zM469.333 810.667H512v128h-42.667zM341.333 810.667H384v128h-42.667z" fill="#333333" p-id="8637"></path></svg>